<svg width="1440" height="925" viewBox="0 0 1440 925" fill="none" xmlns="http://www.w3.org/2000/svg">
<g opacity="0.6">
<path d="M456.687 339.213C584.143 327.559 596.593 425.316 668.651 430.785C715.773 434.361 763.902 369.148 866.761 354.198C1016.26 332.469 1256.05 368.884 1256.05 368.884V740.149H226.883L-919 772.293V323.882C-897.023 319.596 -879.734 305.56 -858.933 283.702C-832.933 256.38 -819.004 283.702 -808.789 283.702C-798.575 283.702 -753.711 204.824 -736.996 179.109C-720.281 153.394 -694.281 216.075 -675.709 233.754C-657.137 251.433 -610.132 226.583 -578.207 216.075C-532.478 201.023 -476.239 242.672 -457.667 258.744C-405.022 296.222 -364.574 251.336 -324.67 266.023C-263.02 288.713 -274.759 321.13 -195.829 327.559C-116.899 333.987 8.12927 267.043 36.9156 250.971C129.736 199.147 228.727 283.702 283.514 311.025C338.301 338.347 420.749 342.499 456.687 339.213Z" fill="url(#paint0_linear_163_269)"/>
<path d="M2149.4 196.896C2218.11 143.167 2288.86 174.509 2315.65 196.896V854.115H462C591.303 687.811 890.084 572.683 984.29 522.792C1102.05 460.428 1140.84 405.878 1197.64 336.318C1254.44 266.758 1276.61 163.315 1323.71 141.728C1370.81 120.14 1380.51 67.3709 1402.68 24.1961C1424.84 -18.9788 1438.7 5.00718 1452.55 24.1961C1466.4 43.3849 1463.63 -2.18865 1476.1 24.1961C1488.57 50.5808 1595.24 132.133 1617.41 141.728C1639.58 151.322 1661.74 196.896 1704.69 163.315C1747.64 129.735 1725.47 153.721 1850.16 249.665C1974.84 345.61 2063.51 264.057 2149.4 196.896Z" fill="url(#paint1_linear_163_269)"/>
<path d="M-784.421 196.576C-818.779 215.224 -939.123 269.834 -995 294.808V785.966L600.964 795.688C499.83 733.818 564.943 624.199 409.78 550.942C302.551 500.315 211.67 393.04 161.796 376.39C61.5012 342.908 3.86255 294.808 -25.2305 264.839C-51.371 237.912 -86.9113 216.591 -131.905 206.566C-209.188 189.347 -265.179 239.532 -327.244 264.839C-404.826 296.473 -415.909 321.447 -519.813 233.205C-623.717 144.963 -741.475 173.267 -784.421 196.576Z" fill="url(#paint2_linear_163_269)"/>
<path d="M-742.952 891.593C-959.191 952.096 -1191.75 916.803 -1281 891.593L-1281 585.261L2573.31 585.262C2611.56 618.619 2665.11 699.697 2573.31 757.144C2458.56 828.952 2203.56 916.039 2021.24 891.594C1838.92 867.148 1854.21 891.594 1749.67 841.175C1645.12 790.756 1447.49 772.422 1201.42 841.175C955.343 909.928 607.269 912.983 158.47 841.175C-290.328 769.366 -472.653 815.965 -742.952 891.593Z" fill="url(#paint3_linear_163_269)"/>
<path d="M1230.23 510.713C1347.71 462.333 1474.06 490.555 1522.55 510.713V755.663H-571.462C-592.243 728.989 -621.336 664.158 -571.462 618.222C-509.12 560.802 -370.581 491.166 -271.526 510.713C-172.471 530.26 -180.783 510.713 -123.983 551.029C-67.1819 591.345 40.1853 606.005 173.875 551.029C307.565 496.052 496.67 493.609 740.498 551.029C984.325 608.448 1083.38 571.187 1230.23 510.713Z" fill="url(#paint4_linear_163_269)"/>
<ellipse cx="1089.5" cy="620.5" rx="136.5" ry="24.5" fill="#D9B6B5" fill-opacity="0.5"/>
</g>
<defs>
<linearGradient id="paint0_linear_163_269" x1="168.527" y1="222.493" x2="168.527" y2="772.293" gradientUnits="userSpaceOnUse">
<stop stop-color="#FFE1E1"/>
<stop offset="1" stop-color="#FFB3C6"/>
</linearGradient>
<linearGradient id="paint1_linear_163_269" x1="1370.55" y1="0" x2="1370.55" y2="854.115" gradientUnits="userSpaceOnUse">
<stop stop-color="#FFC2D1"/>
<stop offset="1" stop-color="#FFF4E9"/>
</linearGradient>
<linearGradient id="paint2_linear_163_269" x1="-237.195" y1="173" x2="-237.195" y2="686.069" gradientUnits="userSpaceOnUse">
<stop stop-color="#FF8580"/>
<stop offset="1" stop-color="#FFF4E9"/>
</linearGradient>
<linearGradient id="paint3_linear_163_269" x1="808.59" y1="142.711" x2="799.973" y2="1029.02" gradientUnits="userSpaceOnUse">
<stop offset="0.134655" stop-color="#FFE1E1"/>
<stop offset="0.665989" stop-color="#FF8580"/>
</linearGradient>
<linearGradient id="paint4_linear_163_269" x1="808.59" y1="142.711" x2="799.973" y2="1029.02" gradientUnits="userSpaceOnUse">
<stop offset="0.134655" stop-color="#FFE1E1"/>
<stop offset="0.665989" stop-color="#FF8580"/>
</linearGradient>
</defs>
</svg>
