<svg width="367" height="344" viewBox="0 0 367 344" fill="none" xmlns="http://www.w3.org/2000/svg">
<path d="M183.299 36.3021C232.097 -10.4267 317.14 -16.118 352.405 51.9872C374.979 95.6933 366.265 148.386 343.908 188.334C323.866 222.455 291.733 248.134 258.974 269.211C254.427 272.152 251.459 276.972 250.887 282.363C249.362 296.878 244.433 326.042 229.265 337.071C208.733 352.021 195.226 334.021 195.471 328.085C195.635 324.163 195.172 313.543 194.818 306.871C194.681 303.985 191.795 302.079 189.072 303.059L187.465 303.631C184.769 304.584 181.855 304.638 179.132 303.767L175.102 302.46C172.243 301.534 169.275 303.549 169.111 306.545C168.567 316.402 168.131 330.59 166.334 336.39C165.68 338.487 143.596 346.82 134.119 336.853C134.119 336.853 108.604 308.533 113.805 278.115C114.54 275.664 113.56 272.996 111.381 271.634C77.3421 250.094 43.4937 223.762 22.689 188.361C0.332182 148.413 -8.35456 95.7205 14.1929 52.0144C49.4573 -16.0908 134.5 -10.3995 183.299 36.3293" fill="#BAA4D2"/>
<path d="M183.299 36.3021C232.097 -10.4267 317.14 -16.118 352.405 51.9872C374.979 95.6933 366.265 148.386 343.908 188.334C323.866 222.455 291.733 248.134 258.974 269.211C254.427 272.152 251.459 276.972 250.887 282.363C249.362 296.878 244.433 326.042 229.265 337.071C208.733 352.021 195.226 334.021 195.471 328.085C195.634 324.163 195.172 313.543 194.818 306.871C194.681 303.985 191.795 302.079 189.072 303.059L187.465 303.631C184.769 304.584 181.856 304.638 179.132 303.767L175.102 302.46C172.243 301.534 169.275 303.549 169.111 306.545C168.567 316.402 168.131 330.59 166.334 336.39C165.68 338.487 143.596 346.82 134.119 336.853C134.119 336.853 108.604 308.533 113.805 278.115C114.54 275.664 113.56 272.996 111.381 271.634C77.3421 250.094 43.4937 223.762 22.689 188.361C0.332182 148.413 -8.35456 95.7205 14.1929 52.0144C49.4573 -16.0908 134.5 -10.3995 183.299 36.3293" stroke="#1D1D1B" stroke-miterlimit="10"/>
<path d="M164.999 140.924C164.999 140.924 181.583 157.699 197.105 140.924" stroke="#1D1D1B" stroke-miterlimit="10"/>
<path d="M183.299 177.06C167.995 162.41 141.336 160.613 130.28 181.989C123.2 195.686 125.923 212.216 132.948 224.742C138.721 234.573 147.762 242.034 157.102 248.406C159.608 249.958 162.222 251.292 164.945 252.436C169.711 254.179 177.281 256.82 180.93 257.256C186.485 257.91 192.694 258.563 207.045 250.122C217.556 243.913 227.386 235.444 233.677 224.769C240.675 212.243 243.425 195.714 236.345 182.016C225.289 160.667 198.63 162.437 183.326 177.087" fill="#8858C6"/>
<path d="M183.299 177.06C167.995 162.41 141.336 160.613 130.28 181.989C123.2 195.686 125.923 212.216 132.948 224.742C138.721 234.572 147.762 242.034 157.102 248.406C159.608 249.958 162.222 251.292 164.945 252.436C169.711 254.179 177.281 256.82 180.93 257.256C186.485 257.91 192.694 258.563 207.045 250.122C217.556 243.913 227.386 235.444 233.677 224.769C240.675 212.243 243.425 195.714 236.345 182.016C225.289 160.667 198.63 162.437 183.326 177.087" stroke="#5D303C" stroke-miterlimit="10"/>
<path d="M96.1858 180.845C109.33 180.845 119.986 170.19 119.986 157.045C119.986 143.901 109.33 133.245 96.1858 133.245C83.0414 133.245 72.3857 143.901 72.3857 157.045C72.3857 170.19 83.0414 180.845 96.1858 180.845Z" fill="#A969DC"/>
<path d="M270.439 180.845C283.583 180.845 294.239 170.19 294.239 157.045C294.239 143.901 283.583 133.245 270.439 133.245C257.294 133.245 246.638 143.901 246.638 157.045C246.638 170.19 257.294 180.845 270.439 180.845Z" fill="#A969DC"/>
<path d="M112.198 140.924C119.447 140.924 125.323 133.963 125.323 125.375C125.323 116.788 119.447 109.826 112.198 109.826C104.949 109.826 99.0725 116.788 99.0725 125.375C99.0725 133.963 104.949 140.924 112.198 140.924Z" fill="black" stroke="black" stroke-miterlimit="10"/>
<path d="M252.847 142.368C260.096 142.368 265.973 135.406 265.973 126.819C265.973 118.231 260.096 111.27 252.847 111.27C245.598 111.27 239.722 118.231 239.722 126.819C239.722 135.406 245.598 142.368 252.847 142.368Z" fill="black" stroke="black" stroke-miterlimit="10"/>
<path d="M75.8169 238.603C75.8169 238.603 134.446 276.89 152.418 258.454C152.418 258.454 154.787 249.468 150.539 241.898C150.539 241.898 161.868 235.39 148.742 228.01C135.644 220.63 105.118 199.934 105.118 196.667" fill="#BAA4D2"/>
<path d="M75.8169 238.603C75.8169 238.603 134.446 276.89 152.418 258.454C152.418 258.454 154.787 249.468 150.539 241.898C150.539 241.898 161.868 235.39 148.742 228.01C135.644 220.63 105.118 199.934 105.118 196.667" stroke="black" stroke-miterlimit="10"/>
<path d="M288.439 235.825C288.439 235.825 234.357 273.731 213.88 262.267C213.88 262.267 204.43 254.806 211.02 246.173C212.763 243.886 212.845 240.754 211.048 238.494C210.421 237.704 209.632 236.806 208.678 235.853C204.24 231.332 249.934 206.143 256.687 197.947" fill="#BAA4D2"/>
<path d="M288.439 235.825C288.439 235.825 234.357 273.731 213.88 262.267C213.88 262.267 204.43 254.806 211.02 246.173C212.763 243.886 212.845 240.754 211.048 238.494C210.421 237.704 209.632 236.806 208.678 235.853C204.24 231.332 249.934 206.143 256.687 197.947" stroke="black" stroke-miterlimit="10"/>
</svg>
